<svg xmlns="http://www.w3.org/2000/svg" viewBox="0 0 256 154" fill="currentColor">
  <path d="M128 0C93.867 0 74.24 18.133 69.12 54.4c7.467-9.6 15.36-13.867 23.68-12.8 5.333.533 10.24 3.2 14.72 8 8.32 9.6 15.36 22.4 31.36 22.4 34.133 0 53.76-18.133 58.88-54.4-7.467 9.6-15.36 13.867-23.68 12.8-5.333-.533-10.24-3.2-14.72-8-8.32-9.6-15.36-22.4-31.36-22.4zM69.12 77.6C34.987 77.6 15.36 95.733 10.24 132c7.467-9.6 15.36-13.867 23.68-12.8 5.333.533 10.24 3.2 14.72 8 8.32 9.6 15.36 22.4 31.36 22.4 34.133 0 53.76-18.133 58.88-54.4-7.467 9.6-15.36 13.867-23.68 12.8-5.333-.533-10.24-3.2-14.72-8-8.32-9.6-15.36-22.4-31.36-22.4z"/>
</svg>
